<svg width="200" height="200" viewBox="0 0 200 200" fill="none" xmlns="http://www.w3.org/2000/svg">
	<path
		d="M100.232 149.198C97.432 149.198 94.832 147.398 93.032 143.998C70.832 102.998 70.632 102.598 70.632 102.398C67.432 97.298 65.732 91.098 65.732 84.798C65.732 65.698 81.232 50.198 100.332 50.198C119.432 50.198 134.932 65.698 134.932 84.798C134.932 91.298 133.132 97.598 129.732 102.998C129.732 102.998 128.532 105.398 107.532 143.998C105.632 147.398 103.132 149.198 100.232 149.198ZM100.332 54.198C83.432 54.198 69.732 67.898 69.732 84.798C69.732 90.398 71.232 95.898 74.232 100.698C74.832 101.998 90.632 131.098 96.632 142.198C98.732 146.098 101.832 146.098 104.032 142.198C111.532 128.398 125.732 102.098 126.232 101.198C129.332 96.198 130.932 90.598 130.932 84.898C130.832 67.898 117.132 54.198 100.332 54.198Z"
		fill="#FA4529" />
	<path
		d="M100.332 105.598C89.732 105.598 81.232 96.998 81.232 86.498C81.232 75.998 89.732 67.298 100.332 67.298C110.932 67.298 119.432 75.898 119.432 86.398C119.432 96.898 110.832 105.598 100.332 105.598ZM100.332 71.298C92.032 71.298 85.232 78.098 85.232 86.398C85.232 94.698 92.032 101.498 100.332 101.498C108.632 101.498 115.432 94.698 115.432 86.398C115.432 78.098 108.632 71.298 100.332 71.298Z"
		fill="#FA4529" />
</svg>